<?xml version="1.0" standalone="no"?>
<!DOCTYPE svg PUBLIC "-//W3C//DTD SVG 20010904//EN"
 "http://www.w3.org/TR/2001/REC-SVG-20010904/DTD/svg10.dtd">
<svg version="1.0" xmlns="http://www.w3.org/2000/svg"
 width="1024.000000pt" height="1024.000000pt" viewBox="0 0 1024.000000 1024.000000"
 preserveAspectRatio="xMidYMid meet">
<metadata>
Created by potrace 1.14, written by Peter Selinger 2001-2017
</metadata>
<g transform="translate(0.000000,1024.000000) scale(0.100000,-0.100000)"
fill="#000000" stroke="none">
<path d="M7598 8359 c-7 -4 -46 -14 -86 -23 -91 -20 -159 -52 -287 -135 -95
-62 -241 -173 -257 -196 -4 -5 -8 -7 -8 -2 0 4 -16 -7 -37 -25 -20 -18 -46
-42 -59 -53 -12 -11 -50 -45 -85 -75 -99 -86 -274 -262 -271 -272 1 -5 -2 -7
-7 -4 -13 8 -62 -45 -54 -57 3 -6 1 -7 -4 -4 -9 6 -151 -138 -259 -263 -21
-25 -43 -50 -49 -56 -59 -66 -95 -110 -95 -117 0 -4 -12 -20 -28 -35 -36 -33
-292 -377 -292 -391 0 -5 -6 -14 -13 -18 -10 -6 -257 -374 -312 -465 -5 -9
-40 -61 -77 -117 -37 -55 -68 -108 -70 -118 -4 -22 -22 -43 -38 -43 -6 0 -50
-30 -98 -66 -48 -36 -162 -110 -253 -165 -92 -54 -170 -106 -173 -115 -5 -13
-9 -14 -22 -4 -12 11 -17 11 -27 0 -10 -10 -9 -11 2 -5 9 5 12 4 7 -3 -3 -6
-16 -9 -28 -7 -24 5 -51 -12 -42 -26 3 -5 -2 -6 -11 -2 -13 5 -14 7 -3 14 9 6
9 9 1 9 -7 0 -17 -8 -22 -17 -6 -11 -11 -13 -11 -5 0 10 -3 10 -14 0 -8 -7
-11 -17 -8 -22 3 -5 0 -6 -7 -2 -6 4 -9 12 -6 17 4 5 1 9 -4 9 -6 0 -11 -4
-11 -10 0 -5 -7 -6 -17 -3 -10 4 -14 2 -10 -4 4 -6 -4 -8 -21 -6 -17 3 -23 1
-15 -4 8 -6 -1 -9 -25 -9 -44 0 -296 -47 -402 -75 -129 -34 -168 -60 -314
-208 -74 -75 -174 -181 -222 -236 -95 -108 -135 -153 -173 -194 -126 -139
-191 -210 -220 -240 -18 -20 -65 -71 -105 -115 -39 -43 -77 -85 -83 -92 -7 -7
-13 -17 -13 -23 0 -6 -4 -11 -8 -11 -4 0 -16 -13 -25 -30 -10 -16 -15 -30 -12
-30 4 0 -1 -7 -10 -16 -13 -14 -14 -19 -3 -26 9 -7 9 -11 2 -14 -13 -5 4 -84
18 -84 4 0 8 -5 8 -11 0 -6 10 -19 21 -28 l22 -17 -29 -23 c-16 -13 -90 -82
-165 -154 -74 -73 -184 -179 -245 -237 -160 -155 -317 -347 -380 -465 -57
-109 -74 -269 -39 -375 48 -144 202 -329 321 -385 58 -27 140 -34 187 -16 24
9 34 6 80 -21 28 -18 66 -42 82 -54 54 -39 93 -46 160 -28 90 24 100 22 158
-33 82 -78 100 -87 160 -80 29 3 81 19 118 35 107 48 105 48 120 5 6 -21 31
-57 54 -80 24 -23 40 -45 36 -49 -3 -4 -1 -5 4 -2 6 3 21 1 35 -4 25 -11 54
-17 100 -22 32 -4 84 17 122 49 16 14 34 25 39 25 5 0 33 -24 63 -54 29 -30
73 -64 97 -76 53 -27 145 -36 153 -15 4 11 11 11 35 2 26 -9 36 -8 60 6 17 10
33 16 38 15 4 -1 29 6 56 16 37 15 59 34 99 85 51 65 62 78 163 191 28 31 75
85 105 121 82 95 134 153 244 266 109 112 147 164 173 233 9 25 20 50 24 55
12 17 59 163 59 183 0 18 5 19 64 15 35 -3 75 -3 89 1 27 6 129 109 308 311
65 74 34 41 295 311 379 393 429 451 485 561 26 51 33 78 34 123 0 32 4 55 9
52 5 -3 7 5 4 16 -4 12 -2 20 3 16 12 -7 31 43 31 81 -1 16 -7 34 -15 40 -13
9 -13 13 -1 30 21 28 18 40 -28 118 -81 139 -193 269 -315 366 -23 19 -40 39
-36 45 3 6 3 8 -2 4 -4 -4 -27 11 -50 33 -40 38 -43 43 -33 70 12 36 21 42
338 252 135 89 261 173 280 187 136 98 361 277 447 357 99 91 131 123 183 179
210 226 253 273 273 298 39 49 168 210 185 231 44 53 82 104 82 109 0 4 13 21
30 39 16 18 30 37 30 42 0 6 11 22 25 37 14 15 25 32 25 38 0 5 5 10 10 10 6
0 10 7 10 15 0 8 4 15 10 15 5 0 12 11 16 25 3 14 10 25 15 25 5 0 9 6 9 14 0
8 3 16 8 18 10 4 92 144 92 157 0 6 5 11 10 11 6 0 10 4 10 9 0 5 21 53 47
108 26 54 48 103 49 108 0 6 6 24 13 40 7 17 15 38 17 48 2 9 6 25 8 35 21 86
24 115 23 182 -2 67 -7 85 -41 151 -36 70 -106 163 -151 201 -35 30 -138 76
-198 88 -64 13 -238 19 -259 9z"/>
</g>
</svg>
