<svg viewBox="0 0 24 24" fill="none" xmlns="http://www.w3.org/2000/svg">
  <path d="M8.28396 9.08957L15.2377 16.0433" stroke="currentcolor" stroke-linecap="round" stroke-linejoin="round"/>
  <path d="M21.0342 21H6.29718L2.49773 17.2005C2.34477 17.0491 2.22334 16.8689 2.14047 16.6703C2.0576 16.4716 2.01493 16.2585 2.01493 16.0433C2.01493 15.8281 2.0576 15.615 2.14047 15.4163C2.22334 15.2177 2.34477 15.0375 2.49773 14.8861L14.0804 3.30334C14.2319 3.15038 14.4121 3.02895 14.6107 2.94608C14.8094 2.86321 15.0225 2.82054 15.2377 2.82054C15.4529 2.82054 15.666 2.86321 15.8646 2.94608C16.0633 3.02895 16.2435 3.15038 16.3949 3.30334L21.0342 7.93233C21.3388 8.24254 21.5094 8.65993 21.5094 9.09469C21.5094 9.52946 21.3388 9.94684 21.0342 10.2571L10.281 21" stroke="currentcolor" stroke-linecap="round" stroke-linejoin="round"/>
</svg>
